<svg id="Capa_1" data-name="Capa 1" xmlns="http://www.w3.org/2000/svg" xmlns:xlink="http://www.w3.org/1999/xlink" viewBox="0 0 469.8 265.41"><defs><style>.cls-1{fill:none;}.cls-2{clip-path:url(#clip-path);}.cls-3{fill:#fffbfa;}.cls-4{clip-path:url(#clip-path-2);}</style><clipPath id="clip-path" transform="translate(-1.84 -3.03)"><rect class="cls-1" x="96.02" y="2.06" width="262.67" height="111.75"/></clipPath><clipPath id="clip-path-2" transform="translate(-1.84 -3.03)"><rect class="cls-1" x="1.75" y="51.14" width="470" height="172"/></clipPath></defs><g class="cls-2"><path class="cls-3" d="M101.33,113a128.24,128.24,0,0,1,251.5-4.29l4.9.71a132.87,132.87,0,0,0-260.91,2.66C98.31,112.37,99.84,112.65,101.33,113Z" transform="translate(-1.84 -3.03)"/></g><path class="cls-3" d="M355.46,127.5c.17,2.73.28,5.47.28,8.24,0,70.63-57.52,128.08-128.24,128.08S99.27,206.37,99.27,135.74c0-1.42.07-2.85.1-4.26l-4.58-.89c-.07,1.7-.15,3.44-.15,5.15,0,73.18,59.59,132.7,132.86,132.7s132.86-59.52,132.86-132.7c0-2.49-.07-5-.21-7.42C358.59,128,357,127.75,355.46,127.5Z" transform="translate(-1.84 -3.03)"/><g class="cls-4"><path class="cls-3" d="M471.14,130.05a4.81,4.81,0,0,0-1.74-1.28A8.17,8.17,0,0,0,467,128a5.66,5.66,0,0,0-2.67.22,7,7,0,0,0-2.48,1.31A76.3,76.3,0,0,1,442.13,131a189.14,189.14,0,0,1-22-2.3q-11.47-1.88-23.86-4.59t-25.38-5.22c-8.68-1.66-17.5-3.12-26.49-4.29a207.32,207.32,0,0,0-27.09-1.88A165,165,0,0,0,290,114.61a128.61,128.61,0,0,0-16.6,4.29c-3.52,1.1-12.38,4.9-14.08,5.61s-3.73,1.42-6.05,2.24-4.83,1.74-7.5,2.74-5.26,2-7.71,3-4.73,2-6.76,3a22.22,22.22,0,0,0-3.52,2.1,8.33,8.33,0,0,0-1,.85,7.48,7.48,0,0,0-2.63,4.19c-.25,1.46-.5,2.91-.78,4.44q-.48,3.78-1.49,10t-2.13,13.42c-.82,4.84-1.64,9.74-2.53,14.71s-1.78,9.51-2.63,13.63-1.67,7.6-2.42,10.37-1.39,4.4-1.85,4.9-.81-.46-1-2.84a115.11,115.11,0,0,1,.11-12.89c.14-4.29.53-9.23,1.24-14.77s1.5-11.26,2.42-17.08,1.92-11.68,2.95-17.44,2.13-11,3.16-15.69,1.92-8.74,2.71-12a44.35,44.35,0,0,1,1.81-6.35c3.34-4.41,6.83-8.84,10.42-13.35s6.93-9.06,10-13.6a124.67,124.67,0,0,0,8-13.67,51.86,51.86,0,0,0,4.62-13.6,13.21,13.21,0,0,0,.14-4.84,6,6,0,0,0-1.28-2.87,4.67,4.67,0,0,0-2.31-1.39,11.51,11.51,0,0,0-2.92-.35,7.45,7.45,0,0,0-3,.64c-.32.14-.67.32-1,.49l-1,.64a18.73,18.73,0,0,0-3.77,3.34l-.53.64L240,58.47a71.05,71.05,0,0,0-6.58,10c-1.56,2.8-3.16,5.89-4.72,9.22-1.14,2.35-2.28,4.87-3.38,7.5l-.74,1.7c-.43,1-.82,2.06-1.21,3.06-.11.28-.25.57-.36.85a4.23,4.23,0,0,1-.25.64c-2.27,5.68-4.51,11.61-6.58,17.9-.64,1.91-1.28,3.86-1.88,5.82a99.7,99.7,0,0,1-25.45,9.27,134.44,134.44,0,0,1-26.28,3,196.1,196.1,0,0,1-26.81-1.46c-9.06-1.14-18.09-2.56-27.16-4.26s-18.06-3.52-27-5.4-17.89-3.45-26.74-4.69a247.85,247.85,0,0,0-26.2-2.23,117,117,0,0,0-25.28,1.84c-.86.32-1.32.71-1.46,1.18a1.42,1.42,0,0,0,.43,1.38A5.78,5.78,0,0,0,4.06,115a7.9,7.9,0,0,0,2.45.78,5.79,5.79,0,0,0,2.67-.21,7.21,7.21,0,0,0,2.49-1.35,78.44,78.44,0,0,1,19.87-1.43,214.65,214.65,0,0,1,22.26,2.35c7.75,1.24,15.82,2.77,24.17,4.65s16.89,3.59,25.64,5.26,17.63,3.12,26.73,4.26a206.78,206.78,0,0,0,27.38,1.7,157.3,157.3,0,0,0,27.62-2.52,122.56,122.56,0,0,0,27.38-8.31c-.11.4-.25.79-.36,1.21-1,3.23-1.88,6.46-2.77,9.73-.29.89-.5,1.77-.75,2.66-.75,2.7-1.42,5.36-2.06,8-.43,1.53-.78,3-1.14,4.51-.46,2-.92,4-1.35,6s-.89,4-1.28,6c-.71,3.59-1.35,7.07-1.92,10.47-.28,1.71-.53,3.38-.78,5s-.46,3.27-.68,4.87c-.14.78-.21,1.56-.32,2.34s-.18,1.6-.24,2.38c-.15,1.28-.29,2.56-.36,3.76a107.44,107.44,0,0,0-.46,12.83,44.16,44.16,0,0,0,1.17,9.94,27.57,27.57,0,0,0,2.73,7,13.47,13.47,0,0,0,3.63,4.26,7.12,7.12,0,0,0,4.16,1.45,5.5,5.5,0,0,0,4.73-2.58,25.48,25.48,0,0,0,3.66-7.18,75.66,75.66,0,0,0,2.78-10.48c.78-4,1.49-8.13,2.06-12.46s1.06-8.77,1.42-13.24.75-8.74,1-12.75.61-7.64.82-10.87.5-5.82.78-7.74a18.24,18.24,0,0,1,.46-2.49,2.61,2.61,0,0,1,1.5-1.52,68.06,68.06,0,0,1,8.67-3.7c2.88-1,5.83-2,8.82-3.05.24-.07.46-.18.71-.25,3.2-1.1,6.36-2.24,9.38-3.48.47-.17.93-.39,1.36-.57.71-.32,1.38-.6,2-1,7.75-3.27,21.48-9.31,29.94-10.87a141.29,141.29,0,0,1,25.67-2.24,195.35,195.35,0,0,1,26,1.88c8.72,1.25,17.46,2.7,26.21,4.44s17.52,3.45,26.24,5.29,17.31,3.3,25.88,4.51a230.31,230.31,0,0,0,25.42,2.13,116.66,116.66,0,0,0,24.67-1.88c.82-.28,1.28-.64,1.42-1.13A1.37,1.37,0,0,0,471.14,130.05ZM235.75,81.58A136.07,136.07,0,0,1,245,63.51a33.62,33.62,0,0,1,4.27-5.68c1.14-1.14,1.95-1.57,2.48-1.32s.68,1.17.47,2.7a27.63,27.63,0,0,1-1.85,6,69.47,69.47,0,0,1-4.23,8.59c-1.78,3.09-3.73,6.29-5.8,9.59s-4.23,6.53-6.43,9.77-4.26,6.17-6.19,8.91Q231.38,91.78,235.75,81.58Z" transform="translate(-1.84 -3.03)"/></g></svg>