<svg xmlns="http://www.w3.org/2000/svg" xmlns:xlink="http://www.w3.org/1999/xlink" width="500" zoomAndPan="magnify" viewBox="0 0 375 374.999991" height="500" preserveAspectRatio="xMidYMid meet" version="1.0"><defs><g/><clipPath id="2fa5ec701b"><path d="M 82 80.1875 L 279 80.1875 L 279 164 L 82 164 Z M 82 80.1875 " clip-rule="nonzero"/></clipPath><clipPath id="ab6b37810e"><path d="M 11.296875 117 L 363.796875 117 L 363.796875 246 L 11.296875 246 Z M 11.296875 117 " clip-rule="nonzero"/></clipPath></defs><g clip-path="url(#2fa5ec701b)"><path fill="#fffbfa" d="M 85.984375 163.371094 C 94.089844 118.523438 133.417969 84.378906 180.613281 84.378906 C 226.664062 84.378906 265.246094 116.898438 274.605469 160.152344 C 275.832031 160.335938 277.03125 160.496094 278.285156 160.683594 C 269.085938 115.246094 228.796875 80.917969 180.613281 80.917969 C 131.738281 80.917969 90.996094 116.257812 82.597656 162.679688 C 83.71875 162.921875 84.863281 163.132812 85.984375 163.371094 Z M 85.984375 163.371094 " fill-opacity="1" fill-rule="nonzero"/></g><path fill="#fffbfa" d="M 276.578125 174.265625 C 276.710938 176.316406 276.792969 178.367188 276.792969 180.445312 C 276.792969 233.417969 233.648438 276.507812 180.613281 276.507812 C 127.578125 276.507812 84.4375 233.417969 84.4375 180.445312 C 84.4375 179.378906 84.492188 178.3125 84.515625 177.25 C 83.371094 177.035156 82.195312 176.796875 81.078125 176.582031 C 81.023438 177.859375 80.96875 179.167969 80.96875 180.445312 C 80.96875 235.335938 125.660156 279.972656 180.613281 279.972656 C 235.570312 279.972656 280.257812 235.335938 280.257812 180.445312 C 280.257812 178.582031 280.203125 176.714844 280.097656 174.878906 C 278.925781 174.664062 277.753906 174.453125 276.578125 174.265625 Z M 276.578125 174.265625 " fill-opacity="1" fill-rule="nonzero"/><g clip-path="url(#ab6b37810e)"><path fill="#fffbfa" d="M 363.34375 176.183594 C 363.050781 175.808594 362.597656 175.492188 362.039062 175.222656 C 361.476562 174.929688 360.863281 174.746094 360.199219 174.636719 C 359.53125 174.53125 358.863281 174.585938 358.199219 174.796875 C 357.53125 174.984375 356.890625 175.332031 356.332031 175.785156 C 351.773438 176.769531 346.839844 177.140625 341.585938 176.902344 C 336.304688 176.664062 330.8125 176.101562 325.082031 175.171875 C 319.347656 174.238281 313.375 173.09375 307.1875 171.734375 C 301.003906 170.378906 294.65625 169.074219 288.152344 167.820312 C 281.644531 166.570312 275.03125 165.476562 268.285156 164.597656 C 261.566406 163.691406 254.792969 163.214844 247.96875 163.1875 C 241.167969 163.1875 234.34375 163.453125 227.464844 164.597656 C 223.304688 165.289062 219.144531 166.542969 215.011719 167.820312 C 212.371094 168.644531 205.730469 171.496094 204.453125 172.027344 C 203.171875 172.535156 201.652344 173.09375 199.917969 173.707031 C 198.160156 174.320312 196.292969 175.011719 194.292969 175.757812 C 192.265625 176.503906 190.347656 177.25 188.507812 178.019531 C 186.640625 178.792969 184.960938 179.539062 183.441406 180.285156 C 182.375 180.816406 181.496094 181.324219 180.800781 181.855469 C 180.507812 182.070312 180.242188 182.28125 180.027344 182.496094 C 178.882812 183.507812 178.242188 184.574219 178.054688 185.636719 C 177.867188 186.730469 177.679688 187.820312 177.46875 188.96875 C 177.226562 190.859375 176.855469 193.363281 176.347656 196.476562 C 175.867188 199.566406 175.335938 202.921875 174.75 206.542969 C 174.136719 210.167969 173.523438 213.84375 172.855469 217.570312 C 172.1875 221.300781 171.523438 224.707031 170.882812 227.796875 C 170.242188 230.914062 169.628906 233.496094 169.070312 235.574219 C 168.507812 237.652344 168.027344 238.875 167.683594 239.25 C 167.335938 239.597656 167.070312 238.902344 166.910156 237.117188 C 166.75 235.359375 166.777344 232.140625 166.988281 227.453125 C 167.097656 224.230469 167.390625 220.527344 167.921875 216.371094 C 168.429688 212.21875 169.042969 207.929688 169.734375 203.5625 C 170.429688 199.167969 171.175781 194.800781 171.949219 190.484375 C 172.75 186.195312 173.546875 182.253906 174.320312 178.714844 C 175.09375 175.171875 175.761719 172.160156 176.347656 169.710938 C 176.933594 167.234375 177.386719 165.664062 177.707031 164.945312 C 180.214844 161.640625 182.828125 158.3125 185.519531 154.929688 C 188.242188 151.519531 190.71875 148.140625 193.039062 144.730469 C 195.359375 141.292969 197.359375 137.886719 199.066406 134.476562 C 200.746094 131.066406 201.917969 127.660156 202.53125 124.277344 C 202.800781 122.785156 202.824219 121.585938 202.640625 120.652344 C 202.453125 119.722656 202.132812 119.003906 201.679688 118.496094 C 201.226562 117.992188 200.640625 117.644531 199.945312 117.457031 C 199.253906 117.273438 198.53125 117.191406 197.757812 117.191406 C 197.039062 117.191406 196.292969 117.351562 195.546875 117.671875 C 195.304688 117.777344 195.039062 117.910156 194.800781 118.042969 C 194.53125 118.203125 194.292969 118.363281 194.027344 118.523438 C 193.09375 119.109375 192.160156 119.960938 191.199219 121.027344 L 190.800781 121.507812 C 190.535156 121.824219 190.265625 122.144531 189.972656 122.492188 C 188.347656 124.515625 186.695312 126.992188 185.039062 129.976562 C 183.867188 132.078125 182.667969 134.394531 181.496094 136.898438 C 180.640625 138.65625 179.789062 140.546875 178.960938 142.519531 C 178.773438 142.945312 178.589844 143.371094 178.402344 143.796875 C 178.082031 144.542969 177.789062 145.34375 177.496094 146.089844 C 177.414062 146.300781 177.308594 146.515625 177.226562 146.726562 C 177.175781 146.886719 177.121094 147.046875 177.042969 147.207031 C 175.335938 151.46875 173.65625 155.914062 172.109375 160.628906 C 171.628906 162.066406 171.148438 163.53125 170.695312 164.996094 C 164.484375 168.246094 158.109375 170.5625 151.605469 171.949219 C 145.097656 173.332031 138.539062 174.078125 131.898438 174.160156 C 125.285156 174.265625 118.566406 173.894531 111.792969 173.066406 C 104.996094 172.214844 98.222656 171.148438 91.421875 169.871094 C 84.648438 168.566406 77.878906 167.234375 71.160156 165.824219 C 64.414062 164.410156 57.746094 163.238281 51.105469 162.308594 C 44.492188 161.402344 37.933594 160.816406 31.457031 160.628906 C 24.976562 160.417969 18.65625 160.871094 12.496094 162.015625 C 11.855469 162.253906 11.511719 162.546875 11.402344 162.894531 C 11.296875 163.214844 11.402344 163.558594 11.722656 163.933594 C 12.015625 164.277344 12.46875 164.597656 13.03125 164.890625 C 13.589844 165.183594 14.203125 165.371094 14.871094 165.476562 C 15.535156 165.582031 16.203125 165.53125 16.871094 165.316406 C 17.535156 165.105469 18.175781 164.785156 18.738281 164.304688 C 23.347656 163.347656 28.335938 162.972656 33.640625 163.238281 C 38.976562 163.507812 44.519531 164.09375 50.332031 164.996094 C 56.144531 165.929688 62.199219 167.074219 68.464844 168.488281 C 74.730469 169.871094 81.128906 171.175781 87.691406 172.429688 C 94.25 173.707031 100.914062 174.773438 107.742188 175.625 C 114.539062 176.503906 121.394531 176.929688 128.273438 176.902344 C 135.179688 176.875 142.085938 176.261719 148.992188 175.011719 C 155.898438 173.785156 162.75 171.710938 169.523438 168.78125 C 169.441406 169.074219 169.335938 169.367188 169.253906 169.683594 C 168.535156 172.109375 167.84375 174.53125 167.175781 176.980469 C 166.960938 177.648438 166.800781 178.3125 166.617188 178.980469 C 166.054688 181.003906 165.550781 183 165.070312 185 C 164.75 186.144531 164.484375 187.261719 164.214844 188.382812 C 163.871094 189.898438 163.523438 191.390625 163.203125 192.882812 C 162.855469 194.398438 162.535156 195.890625 162.242188 197.382812 C 161.710938 200.074219 161.230469 202.683594 160.804688 205.238281 C 160.589844 206.519531 160.402344 207.769531 160.214844 208.996094 C 160.03125 210.21875 159.871094 211.445312 159.710938 212.644531 C 159.601562 213.230469 159.550781 213.816406 159.46875 214.402344 C 159.390625 215.015625 159.335938 215.601562 159.285156 216.1875 C 159.175781 217.144531 159.070312 218.101562 159.015625 219.007812 C 158.695312 222.523438 158.589844 225.71875 158.671875 228.625 C 158.722656 231.5 159.015625 233.976562 159.550781 236.082031 C 160.082031 238.183594 160.777344 239.941406 161.601562 241.355469 C 162.402344 242.765625 163.335938 243.832031 164.324219 244.550781 C 165.335938 245.269531 166.375 245.640625 167.441406 245.640625 C 168.800781 245.695312 169.976562 245.054688 170.988281 243.699219 C 172.027344 242.367188 172.933594 240.582031 173.734375 238.316406 C 174.535156 236.054688 175.226562 233.445312 175.816406 230.460938 C 176.402344 227.476562 176.933594 224.363281 177.363281 221.113281 C 177.789062 217.835938 178.160156 214.535156 178.429688 211.179688 C 178.722656 207.824219 178.988281 204.628906 179.203125 201.617188 C 179.441406 198.636719 179.65625 195.890625 179.816406 193.46875 C 180 191.019531 180.1875 189.101562 180.402344 187.660156 C 180.507812 186.890625 180.613281 186.25 180.746094 185.796875 C 180.882812 185.34375 181.253906 184.945312 181.867188 184.652344 C 183.867188 183.613281 186.054688 182.707031 188.375 181.882812 C 190.535156 181.109375 192.746094 180.363281 194.988281 179.59375 C 195.171875 179.539062 195.332031 179.460938 195.519531 179.40625 C 197.917969 178.582031 200.292969 177.726562 202.558594 176.796875 C 202.90625 176.664062 203.253906 176.503906 203.574219 176.371094 C 204.105469 176.128906 204.613281 175.917969 205.09375 175.652344 C 210.90625 173.199219 221.199219 168.671875 227.542969 167.5 C 233.890625 166.355469 240.316406 165.796875 246.796875 165.824219 C 253.246094 165.851562 259.753906 166.328125 266.285156 167.234375 C 272.820312 168.167969 279.378906 169.257812 285.9375 170.5625 C 292.523438 171.84375 299.082031 173.148438 305.617188 174.53125 C 312.148438 175.890625 318.601562 177.007812 325.027344 177.914062 C 331.453125 178.792969 337.800781 179.351562 344.09375 179.511719 C 350.359375 179.699219 356.519531 179.21875 362.597656 178.101562 C 363.210938 177.886719 363.558594 177.621094 363.664062 177.25 C 363.796875 176.902344 363.664062 176.53125 363.34375 176.183594 Z M 186.800781 139.828125 C 188.988281 134.742188 191.308594 130.214844 193.761719 126.273438 C 195.039062 124.277344 196.105469 122.835938 196.960938 122.011719 C 197.8125 121.160156 198.425781 120.839844 198.824219 121.027344 C 199.199219 121.238281 199.332031 121.90625 199.171875 123.050781 C 199.011719 124.167969 198.558594 125.6875 197.785156 127.578125 C 197.011719 129.523438 195.945312 131.679688 194.613281 134.023438 C 193.28125 136.339844 191.8125 138.738281 190.265625 141.214844 C 188.695312 143.691406 187.09375 146.113281 185.441406 148.539062 C 183.789062 150.933594 182.242188 153.171875 180.800781 155.222656 C 182.613281 150.054688 184.613281 144.917969 186.800781 139.828125 Z M 186.800781 139.828125 " fill-opacity="1" fill-rule="nonzero"/></g><g fill="#fffbfa" fill-opacity="1"><g transform="translate(131.568717, 309.1675)"><g><path d="M 3.554688 0 C 3.738281 0 3.832031 -0.09375 3.832031 -0.28125 L 3.832031 -3.609375 L 7.210938 -3.609375 C 7.386719 -3.609375 7.488281 -3.710938 7.488281 -3.886719 L 7.488281 -5.570312 C 7.488281 -5.753906 7.386719 -5.847656 7.210938 -5.847656 L 3.832031 -5.847656 L 3.832031 -8.117188 L 7.851562 -8.117188 C 8.035156 -8.117188 8.132812 -8.214844 8.132812 -8.398438 L 8.132812 -10.214844 C 8.132812 -10.402344 8.035156 -10.496094 7.851562 -10.496094 L 1.320312 -10.496094 C 1.132812 -10.496094 1.039062 -10.402344 1.039062 -10.214844 L 1.039062 -0.28125 C 1.039062 -0.09375 1.132812 0 1.320312 0 Z M 3.554688 0 "/></g></g></g><g fill="#fffbfa" fill-opacity="1"><g transform="translate(151.40478, 309.1675)"><g><path d="M 6.996094 0 C 7.183594 0 7.277344 -0.09375 7.277344 -0.28125 L 7.277344 -2.097656 C 7.277344 -2.28125 7.183594 -2.378906 6.996094 -2.378906 L 3.832031 -2.378906 L 3.832031 -10.214844 C 3.832031 -10.402344 3.738281 -10.496094 3.554688 -10.496094 L 1.320312 -10.496094 C 1.132812 -10.496094 1.039062 -10.402344 1.039062 -10.214844 L 1.039062 -0.28125 C 1.039062 -0.09375 1.132812 0 1.320312 0 Z M 6.996094 0 "/></g></g></g><g fill="#fffbfa" fill-opacity="1"><g transform="translate(170.175032, 309.1675)"><g><path d="M 7.851562 0 C 8.035156 0 8.132812 -0.09375 8.132812 -0.28125 L 8.132812 -2.097656 C 8.132812 -2.28125 8.035156 -2.378906 7.851562 -2.378906 L 3.832031 -2.378906 L 3.832031 -3.609375 L 7.304688 -3.609375 C 7.488281 -3.609375 7.585938 -3.710938 7.585938 -3.886719 L 7.585938 -5.570312 C 7.585938 -5.753906 7.488281 -5.847656 7.304688 -5.847656 L 3.832031 -5.847656 L 3.832031 -8.117188 L 7.851562 -8.117188 C 8.035156 -8.117188 8.132812 -8.214844 8.132812 -8.398438 L 8.132812 -10.214844 C 8.132812 -10.402344 8.035156 -10.496094 7.851562 -10.496094 L 1.320312 -10.496094 C 1.132812 -10.496094 1.039062 -10.402344 1.039062 -10.214844 L 1.039062 -0.28125 C 1.039062 -0.09375 1.132812 0 1.320312 0 Z M 7.851562 0 "/></g></g></g><g fill="#fffbfa" fill-opacity="1"><g transform="translate(190.304873, 309.1675)"><g><path d="M 5.679688 0.28125 C 8.253906 0.28125 10.429688 -0.828125 10.429688 -3.539062 L 10.429688 -10.214844 C 10.429688 -10.402344 10.324219 -10.496094 10.148438 -10.496094 L 7.839844 -10.496094 C 7.652344 -10.496094 7.558594 -10.402344 7.558594 -10.214844 L 7.558594 -4.285156 C 7.558594 -2.84375 6.914062 -2.242188 5.679688 -2.242188 C 4.460938 -2.242188 3.804688 -2.84375 3.804688 -4.285156 L 3.804688 -10.214844 C 3.804688 -10.402344 3.710938 -10.496094 3.527344 -10.496094 L 1.214844 -10.496094 C 1.039062 -10.496094 0.9375 -10.402344 0.9375 -10.214844 L 0.9375 -3.539062 C 0.9375 -0.828125 3.175781 0.28125 5.679688 0.28125 Z M 5.679688 0.28125 "/></g></g></g><g fill="#fffbfa" fill-opacity="1"><g transform="translate(212.866956, 309.1675)"><g><path d="M 7.824219 -3.941406 C 8.855469 -4.484375 9.445312 -5.601562 9.445312 -7.121094 C 9.445312 -8.917969 8.636719 -10.496094 5.679688 -10.496094 L 1.320312 -10.496094 C 1.132812 -10.496094 1.039062 -10.402344 1.039062 -10.214844 L 1.039062 -0.28125 C 1.039062 -0.09375 1.132812 0 1.320312 0 L 3.566406 0 C 3.75 0 3.847656 -0.09375 3.847656 -0.28125 L 3.847656 -3.582031 L 5.03125 -3.582031 L 6.71875 -0.210938 C 6.785156 -0.0664062 6.886719 0 7.039062 0 L 9.585938 0 C 9.800781 0 9.882812 -0.136719 9.785156 -0.335938 Z M 5.195312 -8.117188 C 5.753906 -8.117188 6.648438 -8.117188 6.648438 -7.09375 C 6.648438 -5.957031 5.582031 -5.957031 5.195312 -5.957031 L 3.847656 -5.957031 L 3.847656 -8.117188 Z M 5.195312 -8.117188 "/></g></g></g><g fill="#fffbfa" fill-opacity="1"><g transform="translate(234.452045, 309.1675)"><g><path d="M 4.285156 0.28125 C 6.273438 0.28125 8.398438 -0.492188 8.398438 -2.9375 C 8.398438 -4.886719 7.039062 -5.726562 5.792969 -6.300781 C 4.550781 -6.875 3.566406 -7.183594 3.566406 -7.8125 C 3.566406 -8.28125 4.03125 -8.4375 4.675781 -8.4375 C 5.304688 -8.4375 6.101562 -8.28125 6.785156 -8.050781 C 6.957031 -7.988281 7.078125 -8.0625 7.132812 -8.226562 L 7.640625 -9.949219 C 7.695312 -10.132812 7.640625 -10.242188 7.460938 -10.296875 C 6.503906 -10.59375 5.386719 -10.777344 4.578125 -10.777344 C 2.617188 -10.777344 0.722656 -9.910156 0.722656 -7.613281 C 0.722656 -5.972656 1.777344 -5.152344 2.992188 -4.523438 C 4.222656 -3.886719 5.542969 -3.511719 5.542969 -2.816406 C 5.542969 -2.28125 5.023438 -2.085938 4.296875 -2.085938 C 3.539062 -2.085938 2.535156 -2.296875 1.640625 -2.589844 C 1.46875 -2.644531 1.347656 -2.605469 1.285156 -2.417969 L 0.683594 -0.585938 C 0.628906 -0.402344 0.695312 -0.292969 0.882812 -0.238281 C 2.152344 0.121094 3.246094 0.28125 4.285156 0.28125 Z M 4.285156 0.28125 "/></g></g></g></svg>