<svg id="Capa_1" data-name="Capa 1" xmlns="http://www.w3.org/2000/svg" xmlns:xlink="http://www.w3.org/1999/xlink" viewBox="0 0 469.8 304.71"><defs><style>.cls-1{fill:none;}.cls-2{clip-path:url(#clip-path);}.cls-3{clip-path:url(#clip-path-2);}</style><clipPath id="clip-path" transform="translate(-1.84 -4)"><rect class="cls-1" x="96.02" y="3.02" width="262.67" height="111.75"/></clipPath><clipPath id="clip-path-2" transform="translate(-1.84 -4)"><rect class="cls-1" x="1.75" y="52.11" width="470" height="172"/></clipPath></defs><g class="cls-2"><path d="M101.33,113.94a128.24,128.24,0,0,1,251.5-4.3c1.63.25,3.23.46,4.9.71A132.87,132.87,0,0,0,96.82,113C98.31,113.34,99.84,113.62,101.33,113.94Z" transform="translate(-1.84 -4)"/></g><path d="M355.46,128.46c.18,2.74.28,5.47.28,8.24,0,70.63-57.52,128.08-128.23,128.08S99.27,207.33,99.27,136.7c0-1.42.07-2.84.1-4.26l-4.58-.89c-.07,1.7-.14,3.45-.14,5.15,0,73.19,59.58,132.7,132.86,132.7s132.85-59.51,132.85-132.7c0-2.48-.07-5-.21-7.42C358.59,129,357,128.71,355.46,128.46Z" transform="translate(-1.84 -4)"/><g class="cls-3"><path d="M471.15,131a4.9,4.9,0,0,0-1.74-1.28A8,8,0,0,0,467,129a5.74,5.74,0,0,0-2.66.21,6.89,6.89,0,0,0-2.49,1.32A77.15,77.15,0,0,1,442.14,132a191.36,191.36,0,0,1-22-2.31q-11.47-1.87-23.86-4.58t-25.38-5.22c-8.68-1.67-17.49-3.13-26.49-4.3a209.08,209.08,0,0,0-27.09-1.88A165.1,165.1,0,0,0,290,115.57a127.06,127.06,0,0,0-16.6,4.3c-3.52,1.1-12.38,4.9-14.08,5.61s-3.73,1.42-6.05,2.24-4.83,1.74-7.5,2.73-5.26,2-7.71,3-4.73,2-6.75,3a21.37,21.37,0,0,0-3.52,2.09,8.65,8.65,0,0,0-1,.86,7.46,7.46,0,0,0-2.63,4.18c-.25,1.46-.5,2.91-.78,4.45-.32,2.52-.82,5.85-1.49,10s-1.35,8.59-2.13,13.42-1.64,9.73-2.53,14.7-1.77,9.52-2.63,13.64-1.67,7.6-2.42,10.37-1.39,4.4-1.84,4.9-.82-.47-1-2.85a114.92,114.92,0,0,1,.11-12.88c.14-4.3.53-9.24,1.24-14.78s1.5-11.25,2.42-17.08,1.92-11.68,2.95-17.43,2.13-11,3.16-15.7,1.93-8.74,2.71-12a44.63,44.63,0,0,1,1.81-6.36c3.34-4.4,6.83-8.84,10.42-13.35s6.93-9.05,10-13.6a121.3,121.3,0,0,0,8-13.67,51.86,51.86,0,0,0,4.62-13.6,13.42,13.42,0,0,0,.15-4.83,6,6,0,0,0-1.29-2.88,4.65,4.65,0,0,0-2.31-1.38,11,11,0,0,0-2.92-.36,7.58,7.58,0,0,0-2.94.64,10.36,10.36,0,0,0-1,.5c-.36.21-.68.42-1,.64a18.69,18.69,0,0,0-3.77,3.34l-.53.64c-.36.42-.71.85-1.11,1.31a70.78,70.78,0,0,0-6.57,10c-1.57,2.8-3.17,5.89-4.73,9.23-1.14,2.34-2.27,4.86-3.38,7.49l-.74,1.71c-.43,1-.82,2.06-1.21,3-.11.28-.25.57-.36.85a3.86,3.86,0,0,1-.25.64c-2.27,5.69-4.51,11.61-6.57,17.9-.64,1.92-1.28,3.87-1.89,5.82a99.33,99.33,0,0,1-25.45,9.27,133.6,133.6,0,0,1-26.28,2.95,194.61,194.61,0,0,1-26.81-1.46c-9.06-1.13-18.09-2.55-27.16-4.26s-18-3.51-27-5.39-17.89-3.45-26.74-4.69a245.05,245.05,0,0,0-26.2-2.24,117,117,0,0,0-25.28,1.85c-.86.32-1.31.71-1.46,1.17a1.43,1.43,0,0,0,.43,1.39A5.94,5.94,0,0,0,4.06,116a7.88,7.88,0,0,0,2.46.78,5.63,5.63,0,0,0,2.66-.21,7,7,0,0,0,2.49-1.35,78,78,0,0,1,19.87-1.42A217,217,0,0,1,53.8,116.1c7.75,1.25,15.82,2.77,24.17,4.66s16.89,3.58,25.64,5.25,17.63,3.13,26.73,4.26A206.89,206.89,0,0,0,157.72,132a159.14,159.14,0,0,0,27.62-2.52,123.08,123.08,0,0,0,27.38-8.31c-.11.39-.25.78-.36,1.2-1,3.24-1.88,6.47-2.77,9.73-.29.89-.5,1.78-.75,2.67-.75,2.7-1.42,5.36-2.06,8-.43,1.53-.78,3-1.14,4.51-.46,2-.92,4-1.35,6s-.89,4-1.28,6c-.71,3.59-1.35,7.07-1.92,10.48-.28,1.71-.53,3.37-.78,5s-.46,3.26-.67,4.86c-.15.78-.22,1.57-.33,2.35s-.17,1.6-.24,2.38c-.15,1.27-.29,2.55-.36,3.76a107.34,107.34,0,0,0-.46,12.82,44.09,44.09,0,0,0,1.17,9.94,27.06,27.06,0,0,0,2.74,7,13.12,13.12,0,0,0,3.63,4.26,7.11,7.11,0,0,0,4.15,1.46,5.5,5.5,0,0,0,4.73-2.59,25.22,25.22,0,0,0,3.66-7.18,75.12,75.12,0,0,0,2.78-10.47c.78-4,1.49-8.13,2.06-12.47s1.06-8.77,1.42-13.24.75-8.73,1-12.75.61-7.64.82-10.86.5-5.83.78-7.75a19.37,19.37,0,0,1,.46-2.48,2.6,2.6,0,0,1,1.5-1.53,68,68,0,0,1,8.67-3.69c2.88-1,5.83-2,8.82-3.05.25-.08.46-.18.71-.25,3.2-1.1,6.36-2.24,9.39-3.48.46-.18.92-.39,1.35-.57.71-.32,1.39-.61,2-1,7.75-3.27,21.47-9.31,29.93-10.87a140.39,140.39,0,0,1,25.67-2.23,193.57,193.57,0,0,1,26,1.88c8.72,1.24,17.46,2.69,26.21,4.43s17.52,3.45,26.24,5.3,17.31,3.3,25.88,4.51a233,233,0,0,0,25.42,2.13,116.66,116.66,0,0,0,24.67-1.88c.82-.29,1.28-.64,1.42-1.14A1.37,1.37,0,0,0,471.15,131ZM235.76,82.54A135.49,135.49,0,0,1,245,64.47a33.57,33.57,0,0,1,4.26-5.68c1.14-1.14,2-1.56,2.49-1.31s.67,1.17.46,2.69a27.08,27.08,0,0,1-1.85,6,69.54,69.54,0,0,1-4.23,8.6c-1.77,3.08-3.73,6.28-5.79,9.58s-4.23,6.53-6.44,9.77-4.26,6.18-6.18,8.91Q231.38,92.74,235.76,82.54Z" transform="translate(-1.84 -4)"/></g><path d="M166.85,308.33a.32.32,0,0,0,.37-.37v-4.44h4.51a.34.34,0,0,0,.37-.37V300.9a.34.34,0,0,0-.37-.37h-4.51v-3h5.36a.34.34,0,0,0,.38-.38v-2.42a.33.33,0,0,0-.38-.37h-8.71a.32.32,0,0,0-.37.37V308a.32.32,0,0,0,.37.37Z" transform="translate(-1.84 -4)"/><path d="M197.89,308.33a.32.32,0,0,0,.37-.37v-2.43a.33.33,0,0,0-.37-.37h-4.22V294.71a.33.33,0,0,0-.37-.37h-3a.32.32,0,0,0-.37.37V308a.32.32,0,0,0,.37.37Z" transform="translate(-1.84 -4)"/><path d="M224.06,308.33a.33.33,0,0,0,.37-.37v-2.43a.33.33,0,0,0-.37-.37H218.7v-1.64h4.63a.34.34,0,0,0,.37-.37V300.9a.33.33,0,0,0-.37-.37H218.7v-3h5.36a.34.34,0,0,0,.37-.38v-2.42a.33.33,0,0,0-.37-.37h-8.71a.33.33,0,0,0-.38.37V308a.33.33,0,0,0,.38.37Z" transform="translate(-1.84 -4)"/><path d="M248,308.71c3.43,0,6.33-1.48,6.33-5.1v-8.9a.33.33,0,0,0-.37-.37h-3.08a.32.32,0,0,0-.37.37v7.91c0,1.92-.86,2.72-2.51,2.72s-2.5-.8-2.5-2.72v-7.91a.32.32,0,0,0-.37-.37h-3.08a.33.33,0,0,0-.37.37v8.9C241.68,307.23,244.66,308.71,248,308.71Z" transform="translate(-1.84 -4)"/><path d="M280.94,303.08a4.47,4.47,0,0,0,2.16-4.24c0-2.4-1.07-4.5-5-4.5h-5.81a.32.32,0,0,0-.37.37V308a.32.32,0,0,0,.37.37h3a.33.33,0,0,0,.37-.37v-4.41h1.58l2.25,4.5a.43.43,0,0,0,.43.28h3.39c.29,0,.4-.18.27-.45Zm-3.5-5.57c.74,0,1.93,0,1.93,1.36,0,1.52-1.42,1.52-1.93,1.52h-1.8v-2.88Z" transform="translate(-1.84 -4)"/><path d="M305,308.71c2.65,0,5.49-1,5.49-4.3,0-2.6-1.81-3.71-3.48-4.48s-3-1.18-3-2c0-.62.62-.83,1.47-.83a9.43,9.43,0,0,1,2.82.52.33.33,0,0,0,.46-.24l.68-2.3a.32.32,0,0,0-.24-.46,14.46,14.46,0,0,0-3.85-.64c-2.61,0-5.14,1.16-5.14,4.22,0,2.19,1.41,3.28,3,4.12s3.4,1.35,3.4,2.28c0,.71-.69,1-1.66,1a12.4,12.4,0,0,1-3.54-.67.33.33,0,0,0-.48.23l-.8,2.44a.33.33,0,0,0,.27.46A16.42,16.42,0,0,0,305,308.71Z" transform="translate(-1.84 -4)"/></svg>