<svg id="Capa_1" data-name="Capa 1" xmlns="http://www.w3.org/2000/svg" xmlns:xlink="http://www.w3.org/1999/xlink" viewBox="0 0 469.8 265.41"><defs><style>.cls-1{fill:none;}.cls-2{clip-path:url(#clip-path);}.cls-3{clip-path:url(#clip-path-2);}</style><clipPath id="clip-path" transform="translate(-2.09 -0.97)"><rect class="cls-1" x="96.27" width="262.67" height="111.75"/></clipPath><clipPath id="clip-path-2" transform="translate(-2.09 -0.97)"><rect class="cls-1" x="2" y="49.08" width="470" height="172"/></clipPath></defs><g class="cls-2"><path d="M101.58,110.91a128.24,128.24,0,0,1,251.5-4.29l4.9.71A132.87,132.87,0,0,0,97.07,110C98.56,110.31,100.09,110.59,101.58,110.91Z" transform="translate(-2.09 -0.97)"/></g><path d="M355.71,125.44c.18,2.73.28,5.47.28,8.24,0,70.63-57.52,128.08-128.23,128.08S99.52,204.31,99.52,133.68c0-1.42.07-2.85.11-4.26L95,128.53c-.07,1.7-.14,3.44-.14,5.15,0,73.18,59.58,132.7,132.86,132.7s132.85-59.52,132.85-132.7c0-2.49-.07-5-.21-7.42C358.84,126,357.28,125.69,355.71,125.44Z" transform="translate(-2.09 -0.97)"/><g class="cls-3"><path d="M471.4,128a4.9,4.9,0,0,0-1.74-1.28,8.24,8.24,0,0,0-2.46-.78,5.61,5.61,0,0,0-2.66.22,7,7,0,0,0-2.49,1.31A76.26,76.26,0,0,1,442.39,129a189.08,189.08,0,0,1-22-2.3q-11.47-1.87-23.86-4.59t-25.38-5.22c-8.68-1.66-17.49-3.12-26.49-4.29a207.32,207.32,0,0,0-27.09-1.88,165.1,165.1,0,0,0-27.34,1.88,128.61,128.61,0,0,0-16.6,4.29c-3.52,1.1-12.38,4.9-14.08,5.61s-3.73,1.43-6.05,2.24-4.83,1.74-7.5,2.74-5.26,2-7.71,3-4.73,2-6.75,3a21.34,21.34,0,0,0-3.52,2.1,8.63,8.63,0,0,0-1,.85,7.48,7.48,0,0,0-2.63,4.19c-.25,1.46-.5,2.91-.78,4.44q-.48,3.78-1.49,10t-2.13,13.42c-.82,4.84-1.64,9.74-2.53,14.71s-1.77,9.51-2.63,13.63-1.67,7.6-2.42,10.37-1.39,4.4-1.84,4.9-.82-.46-1-2.84a115.11,115.11,0,0,1,.11-12.89c.14-4.29.54-9.23,1.24-14.77s1.5-11.26,2.42-17.08,1.92-11.68,2.95-17.44,2.13-11,3.16-15.69,1.93-8.74,2.71-12a44.35,44.35,0,0,1,1.81-6.35c3.34-4.41,6.83-8.84,10.42-13.35s6.93-9.06,10-13.6a123.09,123.09,0,0,0,8-13.67A51.86,51.86,0,0,0,257,58.79a13.48,13.48,0,0,0,.15-4.84,6,6,0,0,0-1.29-2.87,4.67,4.67,0,0,0-2.31-1.39,11.46,11.46,0,0,0-2.92-.35,7.4,7.4,0,0,0-2.94.64c-.33.14-.68.32-1,.49l-1,.64a19,19,0,0,0-3.77,3.34l-.53.64-1.11,1.32a70.2,70.2,0,0,0-6.57,10c-1.57,2.8-3.17,5.89-4.73,9.22-1.14,2.35-2.27,4.87-3.38,7.5l-.74,1.7c-.43,1-.82,2.07-1.21,3.06-.11.28-.25.57-.36.85a4.23,4.23,0,0,1-.25.64c-2.27,5.68-4.51,11.61-6.57,17.9-.64,1.91-1.28,3.87-1.89,5.82a99.7,99.7,0,0,1-25.45,9.27,134.35,134.35,0,0,1-26.28,3A196.19,196.19,0,0,1,136,123.84c-9.06-1.14-18.09-2.56-27.16-4.26s-18-3.52-27-5.4-17.89-3.45-26.74-4.69a247.63,247.63,0,0,0-26.2-2.23A117,117,0,0,0,3.6,109.1c-.86.32-1.31.71-1.46,1.18a1.42,1.42,0,0,0,.43,1.38,5.78,5.78,0,0,0,1.74,1.28,8,8,0,0,0,2.46.78,5.76,5.76,0,0,0,2.66-.21,7.21,7.21,0,0,0,2.49-1.35,78.44,78.44,0,0,1,19.87-1.43,217.14,217.14,0,0,1,22.26,2.35c7.75,1.24,15.82,2.77,24.17,4.65s16.89,3.59,25.64,5.26,17.63,3.12,26.73,4.26A206.88,206.88,0,0,0,158,129a157.21,157.21,0,0,0,27.62-2.52,123,123,0,0,0,27.38-8.3c-.11.39-.25.78-.36,1.2-1,3.23-1.88,6.46-2.77,9.73-.29.89-.5,1.77-.75,2.66-.75,2.7-1.42,5.36-2.06,8-.43,1.53-.78,3-1.14,4.51-.46,2-.92,4-1.35,6s-.89,4-1.28,6c-.71,3.59-1.35,7.07-1.92,10.47-.28,1.71-.53,3.38-.78,5s-.46,3.27-.67,4.87c-.15.78-.22,1.56-.33,2.34s-.17,1.6-.24,2.38c-.15,1.28-.29,2.56-.36,3.76a107.44,107.44,0,0,0-.46,12.83,44.16,44.16,0,0,0,1.17,9.94,27.2,27.2,0,0,0,2.74,7,13.22,13.22,0,0,0,3.63,4.26,7.09,7.09,0,0,0,4.15,1.45,5.49,5.49,0,0,0,4.73-2.58,25.22,25.22,0,0,0,3.66-7.18,75.66,75.66,0,0,0,2.78-10.48c.78-4,1.49-8.13,2.06-12.46s1.06-8.77,1.42-13.24.75-8.74,1-12.75.6-7.64.81-10.87.5-5.82.78-7.74a19.93,19.93,0,0,1,.46-2.49,2.61,2.61,0,0,1,1.5-1.52,68.06,68.06,0,0,1,8.67-3.7c2.88-1,5.83-2,8.82-3.05.25-.07.46-.18.71-.25,3.2-1.1,6.36-2.24,9.39-3.48.46-.17.92-.39,1.35-.57.71-.32,1.39-.6,2-1,7.75-3.27,21.47-9.31,29.93-10.87A141.29,141.29,0,0,1,316,114.18a195.23,195.23,0,0,1,26,1.88c8.72,1.25,17.46,2.7,26.21,4.44s17.52,3.45,26.24,5.29,17.31,3.3,25.88,4.51a230.52,230.52,0,0,0,25.42,2.13,116.66,116.66,0,0,0,24.67-1.88c.82-.28,1.28-.64,1.42-1.13A1.39,1.39,0,0,0,471.4,128ZM236,79.52a134.89,134.89,0,0,1,9.28-18.07,33.15,33.15,0,0,1,4.26-5.68c1.14-1.14,2-1.57,2.49-1.32s.67,1.18.46,2.7a27.08,27.08,0,0,1-1.85,6,69.47,69.47,0,0,1-4.23,8.59c-1.77,3.09-3.73,6.29-5.79,9.59s-4.23,6.53-6.44,9.77-4.26,6.17-6.18,8.91Q231.63,89.72,236,79.52Z" transform="translate(-2.09 -0.97)"/></g></svg>